<?xml version="1.0" encoding="utf-8"?>
<svg width="368pt" height="90pt" viewBox="59 0 250 90" xmlns="http://www.w3.org/2000/svg">
  <path fill="#ffffff" d=" M 0.00 0.00 L 368.00 0.00 L 368.00 90.00 L 92.58 90.00 C 95.48 87.66 96.96 84.17 99.29 81.35 C 107.06 71.56 114.85 61.08 117.60 48.64 C 118.95 41.14 119.02 32.39 113.76 26.29 C 109.68 21.27 102.69 19.42 96.47 20.55 C 86.49 21.90 78.01 28.18 71.25 35.31 C 65.16 41.74 60.06 49.91 59.96 59.04 C 59.70 64.25 61.62 69.84 66.02 72.92 C 69.63 75.67 74.49 75.57 78.74 74.82 C 86.15 72.90 91.69 67.09 96.11 61.16 C 100.15 55.64 103.68 49.07 103.03 42.01 C 102.92 39.20 101.13 36.48 98.45 35.52 C 96.04 34.48 93.47 35.60 91.06 36.04 C 90.39 34.36 89.73 32.67 89.03 31.01 C 88.23 33.07 87.48 35.16 86.74 37.25 C 84.40 37.22 82.07 37.19 79.73 37.17 C 81.48 38.56 83.32 39.84 84.93 41.41 C 84.95 43.80 83.98 46.04 83.41 48.32 C 85.26 46.94 87.11 45.56 88.97 44.19 C 90.81 45.45 92.66 46.70 94.55 47.90 C 93.99 45.73 93.38 43.57 92.80 41.41 C 95.11 40.09 96.93 37.32 99.73 37.22 C 103.09 40.87 102.36 46.37 100.77 50.64 C 98.19 57.20 93.90 63.01 88.82 67.85 C 84.62 71.86 78.99 74.91 73.01 74.26 C 68.20 74.24 64.01 70.43 63.05 65.81 C 61.62 58.47 64.19 51.05 67.73 44.70 C 73.80 33.93 83.85 25.05 95.87 21.70 C 101.51 19.81 108.79 22.02 111.26 27.73 C 114.35 34.83 112.94 42.90 111.07 50.13 C 106.93 64.50 100.40 78.36 90.94 90.00 L 0.00 90.00 L 0.00 0.00 Z"/>
  <path fill="#be0124" d=" M 192.80 9.78 C 193.83 6.70 194.74 3.57 196.11 0.61 C 197.27 3.68 198.28 6.80 199.30 9.92 C 202.57 9.98 205.85 9.97 209.12 10.02 C 206.52 12.01 203.85 13.91 201.25 15.91 C 202.28 19.03 203.31 22.15 204.24 25.31 C 201.42 23.55 198.76 21.56 196.04 19.67 C 193.29 21.58 190.61 23.57 187.80 25.39 C 188.69 22.60 189.64 19.82 190.47 17.01 C 183.34 16.35 176.19 17.75 169.73 20.77 C 157.31 26.45 145.87 34.58 137.01 45.03 C 125.01 58.01 113.91 71.86 100.71 83.68 C 99.64 84.59 98.45 85.29 97.13 85.79 C 112.94 72.00 125.23 54.81 140.04 40.03 C 149.84 30.35 161.45 22.32 174.33 17.33 C 178.85 15.47 183.71 14.82 188.53 14.33 C 186.68 12.86 184.79 11.44 182.97 9.93 C 186.24 9.77 189.52 9.79 192.80 9.78 Z"/>
  <path fill="#be0124" d=" M 96.47 20.55 C 102.69 19.42 109.68 21.27 113.76 26.29 C 119.02 32.39 118.95 41.14 117.60 48.64 C 114.85 61.08 107.06 71.56 99.29 81.35 C 96.96 84.17 95.48 87.66 92.58 90.00 L 90.94 90.00 C 100.40 78.36 106.93 64.50 111.07 50.13 C 112.94 42.90 114.35 34.83 111.26 27.73 C 108.79 22.02 101.51 19.81 95.87 21.70 C 83.85 25.05 73.80 33.93 67.73 44.70 C 64.19 51.05 61.62 58.47 63.05 65.81 C 64.01 70.43 68.20 74.24 73.01 74.26 C 78.99 74.91 84.62 71.86 88.82 67.85 C 93.90 63.01 98.19 57.20 100.77 50.64 C 102.36 46.37 103.09 40.87 99.73 37.22 C 96.93 37.32 95.11 40.09 92.80 41.41 C 93.38 43.57 93.99 45.73 94.55 47.90 C 92.66 46.70 90.81 45.45 88.97 44.19 C 87.11 45.56 85.26 46.94 83.41 48.32 C 83.98 46.04 84.95 43.80 84.93 41.41 C 83.32 39.84 81.48 38.56 79.73 37.17 C 82.07 37.19 84.40 37.22 86.74 37.25 C 87.48 35.16 88.23 33.07 89.03 31.01 C 89.73 32.67 90.39 34.36 91.06 36.04 C 93.47 35.60 96.04 34.48 98.45 35.52 C 101.13 36.48 102.92 39.20 103.03 42.01 C 103.68 49.07 100.15 55.64 96.11 61.16 C 91.69 67.09 86.15 72.90 78.74 74.82 C 74.49 75.57 69.63 75.67 66.02 72.92 C 61.62 69.84 59.70 64.25 59.96 59.04 C 60.06 49.91 65.16 41.74 71.25 35.31 C 78.01 28.18 86.49 21.90 96.47 20.55 Z"/>
  <path fill="#be0124" d=" M 210.95 35.32 C 212.95 35.44 214.95 35.39 216.95 35.22 C 208.98 48.20 201.23 61.34 193.49 74.46 C 192.18 77.07 190.24 79.66 190.24 82.68 C 190.52 84.74 193.01 84.16 194.19 83.30 C 197.96 80.97 200.02 76.81 203.58 74.25 C 200.72 78.36 197.48 82.70 192.80 84.84 C 189.74 86.00 186.83 82.89 186.94 79.94 C 186.57 76.37 188.61 73.26 190.32 70.33 C 197.29 58.71 204.24 47.09 210.95 35.32 Z"/>
  <path fill="#ffffff" d=" M 94.45 36.27 C 95.69 35.41 96.40 35.64 96.59 36.98 C 95.36 37.86 94.65 37.62 94.45 36.27 Z"/>
  <path fill="#727272" d=" M 256.27 38.86 C 258.17 38.82 260.07 38.79 261.98 38.77 C 253.26 54.53 244.29 70.15 235.67 85.96 C 233.73 85.99 231.79 86.01 229.85 86.01 C 231.79 82.64 233.75 79.26 235.00 75.56 C 236.42 73.32 237.85 71.09 239.22 68.82 C 245.28 59.05 250.54 48.82 256.27 38.86 Z"/>
  <path fill="#727272" d=" M 267.30 39.09 C 269.09 38.75 270.92 38.79 272.74 38.71 C 271.76 40.75 270.82 42.83 269.56 44.73 C 267.63 45.15 265.65 45.08 263.69 45.17 C 264.80 43.09 265.87 40.97 267.30 39.09 Z"/>
  <path fill="#727272" d=" M 303.10 40.11 C 304.91 40.15 306.72 40.18 308.54 40.23 C 306.79 43.63 304.86 46.93 303.15 50.35 C 305.09 50.42 307.04 50.47 309.00 50.52 C 308.21 51.95 307.44 53.40 306.69 54.85 C 304.53 54.95 302.37 55.02 300.22 55.10 C 295.81 63.79 290.22 71.88 286.40 80.85 C 288.05 81.29 289.73 81.69 291.40 82.11 C 290.56 83.39 289.80 84.72 288.79 85.88 C 285.99 86.32 283.08 86.36 280.32 85.75 C 278.32 84.23 280.07 81.62 280.76 79.84 C 285.26 71.57 289.93 63.39 294.58 55.20 C 292.94 55.06 291.31 54.92 289.68 54.78 C 290.37 53.44 291.07 52.10 291.77 50.76 C 293.64 50.41 295.81 50.79 297.46 49.72 C 299.60 46.68 301.17 43.28 303.10 40.11 Z"/>
  <path fill="#be0124" d=" M 163.03 52.78 C 162.04 49.08 165.97 47.04 169.01 46.62 C 169.24 48.09 170.26 49.73 169.17 51.10 C 168.18 53.14 164.66 55.14 163.03 52.78 Z"/>
  <path fill="#be0124" d=" M 179.99 58.96 C 182.50 55.57 182.91 49.23 188.37 49.45 C 187.05 52.97 184.14 55.38 181.86 58.21 C 180.15 64.78 186.60 70.30 184.95 76.85 C 183.70 80.74 179.91 83.07 176.22 84.27 C 173.05 85.32 169.26 85.62 166.41 83.57 C 164.50 82.43 164.26 79.99 163.67 78.05 C 162.38 79.29 161.07 80.51 159.58 81.50 C 161.60 78.83 164.15 76.52 165.29 73.28 C 166.51 70.13 169.30 67.96 172.65 67.56 C 175.52 65.11 177.60 61.85 179.99 58.96 Z"/>
  <path fill="#727272" d=" M 260.63 50.58 C 262.48 50.50 264.32 50.44 266.17 50.38 C 260.19 61.87 253.56 73.00 247.36 84.36 C 246.31 86.97 242.91 85.65 240.75 86.09 C 247.25 74.19 253.93 62.38 260.63 50.58 Z"/>
  <path fill="#727272" d=" M 263.05 64.93 C 264.22 56.48 272.47 49.63 280.99 49.83 C 283.26 49.95 286.01 49.48 287.79 51.25 C 290.46 54.11 287.44 57.79 286.66 60.83 C 284.82 60.92 282.99 61.00 281.16 61.07 C 281.66 58.79 281.90 56.46 282.06 54.13 C 276.28 52.90 270.19 56.84 269.60 62.85 C 272.92 64.84 276.89 65.73 279.86 68.27 C 280.98 70.19 280.34 72.47 279.52 74.36 C 276.19 81.86 268.32 87.28 260.02 87.01 C 257.26 86.83 253.84 85.78 253.06 82.76 C 252.77 79.60 254.70 76.81 255.91 74.03 C 257.59 74.02 259.28 74.02 260.97 74.00 C 260.28 76.64 259.84 79.33 259.72 82.06 C 265.54 83.66 272.47 80.18 273.49 74.01 C 272.45 68.80 263.97 70.36 263.05 64.93 Z"/>
  <path fill="#be0124" d=" M 128.15 68.16 C 132.35 63.32 138.18 60.10 144.26 58.24 C 146.46 57.80 149.28 57.45 150.90 59.41 C 152.43 62.24 150.56 65.60 147.88 66.88 C 143.56 69.15 138.73 70.84 133.84 71.04 C 139.60 68.26 147.49 66.25 149.18 59.12 C 143.12 57.89 138.99 63.49 135.33 67.38 C 132.33 71.92 127.42 76.66 129.31 82.62 C 131.21 84.84 134.67 84.17 137.05 83.15 C 143.98 80.07 147.83 73.22 153.20 68.25 C 155.79 65.39 157.34 61.78 159.21 58.45 C 161.30 58.50 163.40 58.52 165.50 58.50 C 161.78 64.77 157.84 70.91 154.15 77.20 C 152.81 79.34 152.18 81.86 152.80 84.35 C 155.23 83.89 157.50 82.92 159.82 82.09 C 157.39 84.33 153.22 86.55 150.47 83.54 C 147.36 80.63 149.53 76.26 150.74 73.00 C 150.49 73.02 150.00 73.07 149.75 73.09 C 145.99 77.55 141.93 82.16 136.35 84.32 C 132.53 86.20 127.27 84.37 125.72 80.34 C 123.88 76.29 125.33 71.40 128.15 68.16 Z"/>
  <path fill="#be0124" d=" M 214.17 58.43 C 216.18 58.49 218.19 58.46 220.20 58.37 C 216.22 65.01 212.01 71.51 208.20 78.25 C 207.08 79.96 207.00 82.00 207.09 83.97 C 211.71 84.79 213.84 79.94 217.21 77.80 C 214.91 80.57 212.58 84.05 208.95 85.01 C 204.35 85.60 202.38 79.77 204.01 76.21 C 206.48 69.80 210.99 64.47 214.17 58.43 Z"/>
  <path fill="#be0124" d=" M 228.78 58.53 C 230.87 58.52 232.97 58.45 235.06 58.28 C 230.99 64.86 226.69 71.34 223.14 78.22 C 222.04 80.04 222.01 82.17 222.01 84.22 C 223.62 83.91 225.49 84.05 226.74 82.78 C 231.86 79.02 234.64 73.06 239.22 68.82 C 237.85 71.09 236.42 73.32 235.00 75.56 C 231.06 78.94 228.02 85.02 222.22 85.02 C 217.98 83.64 217.42 78.36 218.89 74.79 C 222.34 69.46 225.69 64.07 228.78 58.53 Z"/>
  <path fill="#ffffff" d=" M 174.35 67.44 C 176.29 64.54 178.70 61.99 180.89 59.28 C 180.76 63.51 181.30 67.76 180.79 71.97 C 179.53 77.08 176.12 82.48 170.70 83.74 C 168.35 84.31 166.32 82.49 165.10 80.70 C 164.53 78.63 165.66 76.55 167.21 75.24 C 169.10 73.98 171.49 73.71 173.35 72.38 C 174.38 70.98 173.90 69.05 174.35 67.44 Z"/>
  <path fill="#ffffff" d=" M 151.28 71.44 C 151.52 71.66 151.52 71.66 151.28 71.44 Z"/>
</svg>